<svg xmlns="http://www.w3.org/2000/svg" viewBox="0 0 256 256" role="img" aria-label="NestCoin">
  <defs>
    <radialGradient id="coinFace" cx="35%" cy="28%" r="70%">
      <stop offset="0%" stop-color="#fff9cf"/>
      <stop offset="22%" stop-color="#ffe995"/>
      <stop offset="55%" stop-color="#f7c94a"/>
      <stop offset="82%" stop-color="#d79918"/>
      <stop offset="100%" stop-color="#a86408"/>
    </radialGradient>
    <radialGradient id="coinInner" cx="52%" cy="38%" r="66%">
      <stop offset="0%" stop-color="#fff6bc"/>
      <stop offset="50%" stop-color="#f1bf46"/>
      <stop offset="100%" stop-color="#c98010"/>
    </radialGradient>
    <linearGradient id="coinEdge" x1="0%" y1="0%" x2="100%" y2="100%">
      <stop offset="0%" stop-color="#7f4500"/>
      <stop offset="30%" stop-color="#e8a822"/>
      <stop offset="55%" stop-color="#fff1a3"/>
      <stop offset="78%" stop-color="#c67d08"/>
      <stop offset="100%" stop-color="#723d00"/>
    </linearGradient>
    <linearGradient id="shine" x1="0%" y1="0%" x2="100%" y2="100%">
      <stop offset="0%" stop-color="#ffffff" stop-opacity="0.95"/>
      <stop offset="45%" stop-color="#fff6bf" stop-opacity="0.45"/>
      <stop offset="100%" stop-color="#fff6bf" stop-opacity="0"/>
    </linearGradient>
    <filter id="softShadow" x="-20%" y="-20%" width="140%" height="140%">
      <feDropShadow dx="0" dy="6" stdDeviation="5" flood-color="#7d4f10" flood-opacity="0.28"/>
    </filter>
    <filter id="birdShadow" x="-20%" y="-20%" width="140%" height="140%">
      <feDropShadow dx="0" dy="3" stdDeviation="2" flood-color="#4a0f19" flood-opacity="0.38"/>
    </filter>
  </defs>

  <g filter="url(#softShadow)">
    <circle cx="128" cy="128" r="109" fill="url(#coinEdge)"/>
    <circle cx="128" cy="123" r="102" fill="url(#coinFace)"/>
    <circle cx="128" cy="123" r="94" fill="url(#coinInner)" stroke="#ffe79a" stroke-width="2.5"/>
    <ellipse cx="84" cy="77" rx="34" ry="22" fill="url(#shine)" opacity="0.9" transform="rotate(-28 84 77)"/>
    <ellipse cx="195" cy="160" rx="14" ry="22" fill="#fff3ba" opacity="0.5" transform="rotate(20 195 160)"/>
  </g>

  <path
    filter="url(#birdShadow)"
    fill="#8f0f1f"
    d="M126 91
       c-10 -19 -29 -31 -37 -43
       c-3 12 -1 23 5 34
       c-8 -5 -15 -12 -21 -19
       c1 14 6 24 16 34
       c-9 -2 -16 -5 -21 -9
       c5 12 13 21 25 29
       c-11 1 -20 0 -28 -3
       c8 12 18 20 33 24
       c14 4 22 7 32 18
       l0 18
       c-11 9 -23 16 -38 19
       c10 5 20 7 32 6
       c9 -1 17 -4 24 -9
       c6 3 12 5 19 6
       c11 1 21 -1 31 -6
       c-14 -3 -25 -10 -35 -19
       l0 -18
       c7 -11 15 -15 27 -19
       c16 -5 28 -13 36 -27
       c-8 4 -16 5 -25 4
       c11 -9 19 -20 24 -35
       c-7 4 -14 8 -24 10
       c8 -9 13 -19 15 -31
       c-8 7 -16 13 -26 18
       c5 -12 6 -24 2 -37
       c-9 12 -24 23 -33 43
       c-6 13 -8 22 -8 37
       c0 3 0 7 1 11
       c-9 -6 -18 -9 -27 -9
       c-4 0 -8 1 -12 2
       c1 -5 1 -9 1 -13
       c0 -14 -2 -24 -9 -37z"/>
</svg>
