<svg xmlns="http://www.w3.org/2000/svg" viewBox="0 0 256 256" role="img" aria-label="NestCoin">
  <defs>
    <radialGradient id="coinFace" cx="42%" cy="30%" r="72%">
      <stop offset="0%" stop-color="#fffbd9"/>
      <stop offset="20%" stop-color="#ffeaa1"/>
      <stop offset="55%" stop-color="#f5c64b"/>
      <stop offset="84%" stop-color="#d18e15"/>
      <stop offset="100%" stop-color="#9e5f08"/>
    </radialGradient>
    <radialGradient id="coinInner" cx="50%" cy="38%" r="68%">
      <stop offset="0%" stop-color="#fff7c1"/>
      <stop offset="52%" stop-color="#f0bb3f"/>
      <stop offset="100%" stop-color="#c7760c"/>
    </radialGradient>
    <linearGradient id="coinEdge" x1="0%" y1="0%" x2="100%" y2="100%">
      <stop offset="0%" stop-color="#774000"/>
      <stop offset="28%" stop-color="#eba71e"/>
      <stop offset="52%" stop-color="#fff0a8"/>
      <stop offset="76%" stop-color="#c77708"/>
      <stop offset="100%" stop-color="#6e3700"/>
    </linearGradient>
    <linearGradient id="shine" x1="0%" y1="0%" x2="100%" y2="100%">
      <stop offset="0%" stop-color="#ffffff" stop-opacity="0.95"/>
      <stop offset="45%" stop-color="#fff6bf" stop-opacity="0.45"/>
      <stop offset="100%" stop-color="#fff6bf" stop-opacity="0"/>
    </linearGradient>
    <radialGradient id="flare" cx="50%" cy="50%" r="50%">
      <stop offset="0%" stop-color="#fff9dd" stop-opacity="1"/>
      <stop offset="100%" stop-color="#fff9dd" stop-opacity="0"/>
    </radialGradient>
    <filter id="softShadow" x="-20%" y="-20%" width="140%" height="140%">
      <feDropShadow dx="0" dy="6" stdDeviation="5" flood-color="#7d4f10" flood-opacity="0.28"/>
    </filter>
    <filter id="birdShadow" x="-20%" y="-20%" width="140%" height="140%">
      <feDropShadow dx="0" dy="3" stdDeviation="2" flood-color="#4a0f19" flood-opacity="0.38"/>
    </filter>
  </defs>

  <g filter="url(#softShadow)">
    <circle cx="128" cy="128" r="109" fill="url(#coinEdge)"/>
    <circle cx="128" cy="123" r="102" fill="url(#coinFace)"/>
    <circle cx="128" cy="123" r="94" fill="url(#coinInner)" stroke="#ffe28c" stroke-width="2.8"/>
    <ellipse cx="84" cy="77" rx="38" ry="25" fill="url(#shine)" opacity="0.96" transform="rotate(-28 84 77)"/>
    <ellipse cx="72" cy="66" rx="20" ry="20" fill="url(#flare)" opacity="0.95"/>
    <ellipse cx="203" cy="155" rx="12" ry="18" fill="#fff3ba" opacity="0.44" transform="rotate(20 203 155)"/>
  </g>

  <path
    filter="url(#birdShadow)"
    fill="#9f0b1c"
    d="M127 86
       c-8 -20 -26 -35 -34 -46
       c-5 13 -4 24 1 35
       c-8 -5 -14 -10 -20 -17
       c1 14 5 24 12 34
       c-8 -2 -14 -4 -20 -8
       c5 12 12 22 24 31
       c-10 0 -17 -1 -24 -3
       c8 11 17 18 30 24
       c15 6 25 12 34 25
       c-2 1 -5 2 -8 4
       c-10 6 -21 10 -34 11
       c10 5 22 7 33 5
       c10 -1 20 -4 28 -10
       c7 4 15 8 25 10
       c11 2 23 0 34 -5
       c-13 -1 -24 -5 -34 -12
       c-3 -1 -6 -3 -8 -4
       c8 -13 18 -19 34 -25
       c13 -6 24 -13 31 -26
       c-8 3 -16 4 -24 4
       c11 -8 18 -18 23 -31
       c-6 4 -13 7 -21 9
       c7 -9 11 -20 12 -33
       c-6 6 -12 12 -20 17
       c5 -12 6 -24 1 -36
       c-9 11 -25 26 -34 47
       c-4 10 -6 20 -6 31
       c0 5 0 10 2 16
       c-8 -4 -16 -6 -24 -6
       c-5 0 -10 1 -14 3
       c1 -6 1 -11 1 -16
       c0 -11 -2 -20 -6 -30z"/>
</svg>
